<svg width="22" height="22" viewBox="0 0 22 22" fill="none" xmlns="http://www.w3.org/2000/svg">
<path fill-rule="evenodd" clip-rule="evenodd" d="M11 2.2C15.8521 2.2 19.8 6.1479 19.8 11C19.8 15.8521 15.8521 19.8 11 19.8C6.1479 19.8 2.2 15.8521 2.2 11C2.2 6.1479 6.1479 2.2 11 2.2ZM12.1 9.9H16.5V12.1H12.1V16.5H9.9V12.1H5.5V9.9H9.9V5.5H12.1V9.9Z" fill="#0B92D2"/>
<path fill-rule="evenodd" clip-rule="evenodd" d="M19.8 11C19.8 6.1479 15.8521 2.2 11 2.2C6.1479 2.2 2.2 6.1479 2.2 11C2.2 15.8521 6.1479 19.8 11 19.8C15.8521 19.8 19.8 15.8521 19.8 11ZM0 11C0 4.9247 4.9247 0 11 0C17.0753 0 22 4.9247 22 11C22 17.0753 17.0753 22 11 22C4.9247 22 0 17.0753 0 11Z" fill="#0B92D2"/>
</svg>
