<svg width="21" height="21" viewBox="0 0 21 21" fill="none" xmlns="http://www.w3.org/2000/svg">
<path fill-rule="evenodd" clip-rule="evenodd" d="M8.74535 0.126414C6.28853 0.534914 3.84885 1.99641 2.25148 4.01657C-0.0778362 6.96234 -0.638049 10.8504 0.749986 14.4366C1.71327 16.9249 4.07975 19.2915 6.56775 20.2543C12.7722 22.6553 19.4548 19.0384 20.7929 12.5553C21.6485 8.41011 19.8023 4.04555 16.194 1.68268C14.1176 0.323034 11.2127 -0.283967 8.74535 0.126414ZM12.3531 1.50463C18.7223 2.81363 21.744 10.2202 18.1197 15.6391C14.5194 21.0219 6.47298 21.0219 2.87273 15.6391C-0.354625 10.8137 1.63111 4.23852 6.98852 2.01056C8.58931 1.34484 10.6363 1.15176 12.3531 1.50463ZM9.60026 2.68635C9.07986 3.03402 8.81313 3.58662 8.87451 4.18964C9.07234 6.13096 11.9201 6.13096 12.1179 4.18964C12.2155 3.23031 11.4807 2.43532 10.4962 2.43532C10.1395 2.43532 9.85792 2.51416 9.60026 2.68635ZM4.41415 5.5317C4.14974 5.79611 4.1252 6.33278 4.3666 6.57418C4.57195 6.77954 4.53745 6.7708 6.77918 7.18837C7.74546 7.3684 8.55536 7.53505 8.57892 7.55861C8.6822 7.66178 8.62603 11.3004 8.51036 12.0009C8.44014 12.4267 8.1367 13.756 7.83602 14.955C7.53535 16.154 7.2893 17.2826 7.2893 17.4628C7.2893 17.8447 7.72356 18.249 8.1336 18.249C8.43969 18.249 8.80506 17.9187 8.89507 17.5606C10.126 12.6628 10.3432 11.8903 10.4893 11.8903C10.6051 11.8903 10.8506 12.6996 11.3949 14.8751C12.1856 18.0366 12.2798 18.249 12.891 18.249C13.2165 18.249 13.7031 17.791 13.7031 17.4846C13.7031 17.3629 13.4342 16.1787 13.1055 14.8532C12.4127 12.0589 12.2011 10.4023 12.3181 8.68691L12.3965 7.53616L12.9116 7.42989C13.1949 7.37139 14.0666 7.20938 14.8486 7.06993C16.4334 6.78728 16.7994 6.60083 16.7994 6.07655C16.7994 5.74601 16.4678 5.30931 16.2189 5.31196C16.1429 5.31285 15.1385 5.48702 13.9871 5.69901C11.1074 6.22938 9.86511 6.22916 7.00499 5.69757C5.85958 5.4847 4.85781 5.31053 4.77885 5.31053C4.69989 5.31053 4.53579 5.41005 4.41415 5.5317Z" fill="black"/>
</svg>
