<svg width="27" height="27" viewBox="0 0 27 27" fill="none" xmlns="http://www.w3.org/2000/svg">
<path d="M13.5007 0C13.8076 0 14.102 0.121919 14.319 0.338937C14.536 0.555955 14.6579 0.850295 14.6579 1.1572C14.6579 1.46411 14.536 1.75845 14.319 1.97547C14.102 2.19249 13.8076 2.31441 13.5007 2.31441C10.5339 2.31441 7.68864 3.49296 5.5908 5.5908C3.49296 7.68864 2.31441 10.5339 2.31441 13.5007C2.31441 16.4675 3.49296 19.3128 5.5908 21.4106C7.68864 23.5085 10.5339 24.687 13.5007 24.687C13.8076 24.687 14.102 24.8089 14.319 25.026C14.536 25.243 14.6579 25.5373 14.6579 25.8442C14.6579 26.1511 14.536 26.4455 14.319 26.6625C14.102 26.8795 13.8076 27.0014 13.5007 27.0014C9.9201 27.0014 6.48614 25.579 3.95427 23.0472C1.42239 20.5153 0 17.0813 0 13.5007C0 9.9201 1.42239 6.48614 3.95427 3.95427C6.48614 1.42239 9.9201 0 13.5007 0Z" fill="black"/>
<path d="M20.3977 9.68957C20.1933 9.4702 20.082 9.18006 20.0873 8.88026C20.0926 8.58047 20.214 8.29443 20.4261 8.08241C20.6381 7.87039 20.9241 7.74894 21.2239 7.74365C21.5237 7.73836 21.8139 7.84964 22.0332 8.05405L26.662 12.6829C26.8787 12.8998 27.0005 13.194 27.0005 13.5006C27.0005 13.8073 26.8787 14.1014 26.662 14.3184L22.0332 18.9472C21.9273 19.0609 21.7995 19.1521 21.6576 19.2153C21.5156 19.2786 21.3624 19.3126 21.207 19.3153C21.0516 19.3181 20.8973 19.2895 20.7532 19.2313C20.6091 19.1731 20.4782 19.0865 20.3683 18.9766C20.2584 18.8667 20.1718 18.7358 20.1136 18.5917C20.0554 18.4476 20.0268 18.2933 20.0296 18.1379C20.0323 17.9825 20.0663 17.8293 20.1296 17.6873C20.1928 17.5454 20.284 17.4176 20.3977 17.3117L23.0516 14.6578H10.4149C10.108 14.6578 9.81365 14.5359 9.59663 14.3189C9.37961 14.1019 9.25769 13.8075 9.25769 13.5006C9.25769 13.1937 9.37961 12.8994 9.59663 12.6824C9.81365 12.4653 10.108 12.3434 10.4149 12.3434H23.0516L20.3977 9.68957Z" fill="black"/>
</svg>
