<svg width="42" height="42" viewBox="0 0 42 42" fill="none" xmlns="http://www.w3.org/2000/svg">
<circle cx="20.6971" cy="20.6971" r="19.1971" stroke="#0B92D2" stroke-opacity="0.27" stroke-width="3"/>
<mask id="path-2-inside-1_1_62" fill="white">
<path d="M39.8968 20.6971C40.7237 20.6971 41.3997 20.0258 41.34 19.201C41.1801 16.9952 40.6675 14.8259 39.8186 12.7766C38.7785 10.2656 37.254 7.98393 35.3321 6.06203C33.4102 4.14013 31.1286 2.61559 28.6175 1.57547C26.5682 0.726646 24.3989 0.213998 22.1931 0.0541372C21.3683 -0.00563565 20.6971 0.670371 20.6971 1.49732C20.6971 2.32426 21.3686 2.98805 22.1926 3.05792C24.0049 3.21157 25.7857 3.64386 27.4715 4.34215C29.6192 5.23178 31.5707 6.53573 33.2146 8.17955C34.8584 9.82337 36.1623 11.7749 37.052 13.9226C37.7502 15.6084 38.1825 17.3893 38.3362 19.2015C38.4061 20.0255 39.0698 20.6971 39.8968 20.6971Z"/>
</mask>
<path d="M39.8968 20.6971C40.7237 20.6971 41.3997 20.0258 41.34 19.201C41.1801 16.9952 40.6675 14.8259 39.8186 12.7766C38.7785 10.2656 37.254 7.98393 35.3321 6.06203C33.4102 4.14013 31.1286 2.61559 28.6175 1.57547C26.5682 0.726646 24.3989 0.213998 22.1931 0.0541372C21.3683 -0.00563565 20.6971 0.670371 20.6971 1.49732C20.6971 2.32426 21.3686 2.98805 22.1926 3.05792C24.0049 3.21157 25.7857 3.64386 27.4715 4.34215C29.6192 5.23178 31.5707 6.53573 33.2146 8.17955C34.8584 9.82337 36.1623 11.7749 37.052 13.9226C37.7502 15.6084 38.1825 17.3893 38.3362 19.2015C38.4061 20.0255 39.0698 20.6971 39.8968 20.6971Z" stroke="#0B92D2" stroke-width="6" mask="url(#path-2-inside-1_1_62)"/>
<path d="M10.8773 24C10.804 24 10.744 23.9767 10.6973 23.93C10.6507 23.8833 10.6273 23.8233 10.6273 23.75V23.15C10.6273 23.0967 10.6407 23.0267 10.6673 22.94C10.7007 22.8467 10.7707 22.7567 10.8773 22.67L12.1973 21.36C12.684 20.9867 13.0773 20.67 13.3773 20.41C13.684 20.15 13.9107 19.9133 14.0573 19.7C14.204 19.4867 14.2773 19.28 14.2773 19.08C14.2773 18.82 14.204 18.6067 14.0573 18.44C13.9173 18.2667 13.6873 18.18 13.3673 18.18C13.154 18.18 12.974 18.2267 12.8273 18.32C12.6873 18.4067 12.5773 18.5233 12.4973 18.67C12.4173 18.8167 12.364 18.9767 12.3373 19.15C12.3173 19.2367 12.274 19.2967 12.2073 19.33C12.1473 19.3633 12.084 19.38 12.0173 19.38H10.9573C10.8907 19.38 10.8373 19.36 10.7973 19.32C10.7573 19.2733 10.7373 19.2233 10.7373 19.17C10.744 18.8633 10.8073 18.5733 10.9273 18.3C11.054 18.0267 11.2307 17.7833 11.4573 17.57C11.684 17.3567 11.9573 17.19 12.2773 17.07C12.5973 16.9433 12.9607 16.88 13.3673 16.88C13.9273 16.88 14.3973 16.9733 14.7773 17.16C15.1573 17.34 15.444 17.59 15.6373 17.91C15.8307 18.23 15.9273 18.6 15.9273 19.02C15.9273 19.34 15.8607 19.6367 15.7273 19.91C15.6007 20.1833 15.414 20.4467 15.1673 20.7C14.9207 20.9467 14.6273 21.2033 14.2873 21.47L13.1073 22.65H15.8273C15.9007 22.65 15.9607 22.6733 16.0073 22.72C16.054 22.7667 16.0773 22.8267 16.0773 22.9V23.75C16.0773 23.8233 16.054 23.8833 16.0073 23.93C15.9607 23.9767 15.9007 24 15.8273 24H10.8773ZM19.6652 24.11C19.0652 24.11 18.5619 24.0133 18.1552 23.82C17.7486 23.6267 17.4386 23.3733 17.2252 23.06C17.0186 22.7467 16.9086 22.4133 16.8952 22.06C16.8952 22 16.9152 21.95 16.9552 21.91C16.9952 21.87 17.0452 21.85 17.1052 21.85H18.2352C18.3152 21.85 18.3786 21.87 18.4252 21.91C18.4786 21.9433 18.5186 21.99 18.5452 22.05C18.6119 22.23 18.6986 22.3767 18.8052 22.49C18.9186 22.6033 19.0486 22.6867 19.1952 22.74C19.3419 22.7933 19.4986 22.82 19.6652 22.82C19.8786 22.82 20.0752 22.7767 20.2552 22.69C20.4352 22.5967 20.5786 22.4633 20.6852 22.29C20.7919 22.1167 20.8452 21.9033 20.8452 21.65C20.8452 21.43 20.7952 21.2367 20.6952 21.07C20.5952 20.9033 20.4552 20.7733 20.2752 20.68C20.0952 20.5867 19.8919 20.54 19.6652 20.54C19.4919 20.54 19.3486 20.56 19.2352 20.6C19.1286 20.64 19.0386 20.69 18.9652 20.75C18.8919 20.8033 18.8252 20.8533 18.7652 20.9C18.7052 20.94 18.6386 20.96 18.5652 20.96H17.4552C17.3952 20.96 17.3419 20.94 17.2952 20.9C17.2552 20.8533 17.2352 20.8 17.2352 20.74L17.5852 17.29C17.5986 17.1967 17.6319 17.1267 17.6852 17.08C17.7452 17.0267 17.8152 17 17.8952 17H21.7752C21.8486 17 21.9086 17.0233 21.9552 17.07C22.0019 17.1167 22.0252 17.1767 22.0252 17.25V18.05C22.0252 18.1167 22.0019 18.1733 21.9552 18.22C21.9086 18.2667 21.8486 18.29 21.7752 18.29H18.8852L18.7352 19.76C18.8686 19.6733 19.0319 19.5967 19.2252 19.53C19.4252 19.4567 19.7019 19.42 20.0552 19.42C20.3752 19.42 20.6786 19.4733 20.9652 19.58C21.2586 19.68 21.5186 19.83 21.7452 20.03C21.9719 20.23 22.1486 20.47 22.2752 20.75C22.4086 21.0233 22.4752 21.3367 22.4752 21.69C22.4752 22.17 22.3619 22.5933 22.1352 22.96C21.9086 23.32 21.5852 23.6033 21.1652 23.81C20.7452 24.01 20.2452 24.11 19.6652 24.11ZM23.9636 24C23.8169 24 23.7436 23.9333 23.7436 23.8C23.7436 23.76 23.7569 23.7233 23.7836 23.69L28.7236 17.19C28.7702 17.13 28.8169 17.0833 28.8636 17.05C28.9102 17.0167 28.9769 17 29.0636 17H29.6836C29.8302 17 29.9036 17.0667 29.9036 17.2C29.9036 17.24 29.8902 17.2767 29.8636 17.31L24.9236 23.81C24.8769 23.87 24.8302 23.9167 24.7836 23.95C24.7436 23.9833 24.6769 24 24.5836 24H23.9636ZM28.8836 24.05C28.4302 24.05 28.0702 23.93 27.8036 23.69C27.5436 23.45 27.4002 23.13 27.3736 22.73C27.3602 22.5567 27.3536 22.4033 27.3536 22.27C27.3602 22.1367 27.3669 21.9767 27.3736 21.79C27.3936 21.39 27.5302 21.0667 27.7836 20.82C28.0436 20.5733 28.4102 20.45 28.8836 20.45C29.3569 20.45 29.7202 20.5733 29.9736 20.82C30.2336 21.0667 30.3736 21.39 30.3936 21.79C30.4069 21.9767 30.4136 22.1367 30.4136 22.27C30.4136 22.4033 30.4069 22.5567 30.3936 22.73C30.3736 23.13 30.2269 23.45 29.9536 23.69C29.6869 23.93 29.3302 24.05 28.8836 24.05ZM28.8836 23.23C29.0102 23.23 29.1102 23.2033 29.1836 23.15C29.2569 23.0967 29.3102 23.0267 29.3436 22.94C29.3836 22.8533 29.4069 22.7633 29.4136 22.67C29.4269 22.5167 29.4336 22.38 29.4336 22.26C29.4336 22.1333 29.4269 21.9933 29.4136 21.84C29.4069 21.7 29.3636 21.5733 29.2836 21.46C29.2036 21.3467 29.0702 21.29 28.8836 21.29C28.6969 21.29 28.5636 21.3467 28.4836 21.46C28.4102 21.5733 28.3669 21.7 28.3536 21.84C28.3469 21.9933 28.3436 22.1333 28.3436 22.26C28.3436 22.38 28.3469 22.5167 28.3536 22.67C28.3669 22.7633 28.3869 22.8533 28.4136 22.94C28.4469 23.0267 28.5002 23.0967 28.5736 23.15C28.6536 23.2033 28.7569 23.23 28.8836 23.23ZM24.7736 20.53C24.3202 20.53 23.9602 20.4133 23.6936 20.18C23.4336 19.94 23.2902 19.62 23.2636 19.22C23.2502 19.0467 23.2436 18.8967 23.2436 18.77C23.2502 18.6367 23.2569 18.4767 23.2636 18.29C23.2836 17.8833 23.4202 17.56 23.6736 17.32C23.9336 17.0733 24.3002 16.95 24.7736 16.95C25.2536 16.95 25.6202 17.0733 25.8736 17.32C26.1269 17.56 26.2636 17.8833 26.2836 18.29C26.2969 18.4767 26.3036 18.6367 26.3036 18.77C26.3036 18.8967 26.2969 19.0467 26.2836 19.22C26.2636 19.62 26.1202 19.94 25.8536 20.18C25.5869 20.4133 25.2269 20.53 24.7736 20.53ZM24.7736 19.72C24.9002 19.72 25.0002 19.6933 25.0736 19.64C25.1469 19.5867 25.2002 19.5167 25.2336 19.43C25.2736 19.3433 25.2969 19.2567 25.3036 19.17C25.3169 19.01 25.3236 18.87 25.3236 18.75C25.3236 18.6233 25.3169 18.4867 25.3036 18.34C25.2969 18.2 25.2536 18.0733 25.1736 17.96C25.0936 17.84 24.9602 17.78 24.7736 17.78C24.5869 17.78 24.4536 17.84 24.3736 17.96C24.3002 18.0733 24.2569 18.2 24.2436 18.34C24.2369 18.4867 24.2336 18.6233 24.2336 18.75C24.2336 18.87 24.2369 19.01 24.2436 19.17C24.2569 19.2567 24.2802 19.3433 24.3136 19.43C24.3469 19.5167 24.4002 19.5867 24.4736 19.64C24.5469 19.6933 24.6469 19.72 24.7736 19.72Z" fill="black"/>
</svg>
