<svg width="42" height="42" viewBox="0 0 42 42" fill="none" xmlns="http://www.w3.org/2000/svg">
<circle cx="20.6971" cy="20.6971" r="19.1971" stroke="#0B92D2" stroke-opacity="0.27" stroke-width="3"/>
<path d="M16.5256 24.1C16.0456 24.1 15.6323 24.0333 15.2856 23.9C14.9456 23.76 14.6623 23.57 14.4356 23.33C14.2156 23.0833 14.0489 22.8 13.9356 22.48C13.8289 22.1533 13.7656 21.8067 13.7456 21.44C13.7389 21.26 13.7323 21.06 13.7256 20.84C13.7256 20.6133 13.7256 20.3867 13.7256 20.16C13.7323 19.9333 13.7389 19.7267 13.7456 19.54C13.7589 19.1733 13.8223 18.83 13.9356 18.51C14.0556 18.19 14.2289 17.91 14.4556 17.67C14.6823 17.43 14.9656 17.2433 15.3056 17.11C15.6523 16.97 16.0589 16.9 16.5256 16.9C16.9923 16.9 17.3956 16.97 17.7356 17.11C18.0756 17.2433 18.3589 17.43 18.5856 17.67C18.8123 17.91 18.9823 18.19 19.0956 18.51C19.2156 18.83 19.2856 19.1733 19.3056 19.54C19.3123 19.7267 19.3156 19.9333 19.3156 20.16C19.3223 20.3867 19.3223 20.6133 19.3156 20.84C19.3156 21.06 19.3123 21.26 19.3056 21.44C19.2856 21.8067 19.2189 22.1533 19.1056 22.48C18.9923 22.8 18.8223 23.0833 18.5956 23.33C18.3756 23.57 18.0923 23.76 17.7456 23.9C17.4056 24.0333 16.9989 24.1 16.5256 24.1ZM16.5256 22.8C16.9123 22.8 17.1956 22.6733 17.3756 22.42C17.5556 22.1667 17.6523 21.8233 17.6656 21.39C17.6723 21.1967 17.6756 20.9967 17.6756 20.79C17.6823 20.5833 17.6823 20.3767 17.6756 20.17C17.6756 19.9633 17.6723 19.77 17.6656 19.59C17.6523 19.1767 17.5556 18.84 17.3756 18.58C17.1956 18.32 16.9123 18.1867 16.5256 18.18C16.1323 18.1867 15.8456 18.32 15.6656 18.58C15.4923 18.84 15.3989 19.1767 15.3856 19.59C15.3789 19.77 15.3723 19.9633 15.3656 20.17C15.3656 20.3767 15.3656 20.5833 15.3656 20.79C15.3723 20.9967 15.3789 21.1967 15.3856 21.39C15.3989 21.8233 15.4956 22.1667 15.6756 22.42C15.8556 22.6733 16.1389 22.8 16.5256 22.8ZM20.9753 24C20.8286 24 20.7553 23.9333 20.7553 23.8C20.7553 23.76 20.7686 23.7233 20.7953 23.69L25.7353 17.19C25.782 17.13 25.8286 17.0833 25.8753 17.05C25.922 17.0167 25.9886 17 26.0753 17H26.6953C26.842 17 26.9153 17.0667 26.9153 17.2C26.9153 17.24 26.902 17.2767 26.8753 17.31L21.9353 23.81C21.8886 23.87 21.842 23.9167 21.7953 23.95C21.7553 23.9833 21.6886 24 21.5953 24H20.9753ZM25.8953 24.05C25.442 24.05 25.082 23.93 24.8153 23.69C24.5553 23.45 24.412 23.13 24.3853 22.73C24.372 22.5567 24.3653 22.4033 24.3653 22.27C24.372 22.1367 24.3786 21.9767 24.3853 21.79C24.4053 21.39 24.542 21.0667 24.7953 20.82C25.0553 20.5733 25.422 20.45 25.8953 20.45C26.3686 20.45 26.732 20.5733 26.9853 20.82C27.2453 21.0667 27.3853 21.39 27.4053 21.79C27.4186 21.9767 27.4253 22.1367 27.4253 22.27C27.4253 22.4033 27.4186 22.5567 27.4053 22.73C27.3853 23.13 27.2386 23.45 26.9653 23.69C26.6986 23.93 26.342 24.05 25.8953 24.05ZM25.8953 23.23C26.022 23.23 26.122 23.2033 26.1953 23.15C26.2686 23.0967 26.322 23.0267 26.3553 22.94C26.3953 22.8533 26.4186 22.7633 26.4253 22.67C26.4386 22.5167 26.4453 22.38 26.4453 22.26C26.4453 22.1333 26.4386 21.9933 26.4253 21.84C26.4186 21.7 26.3753 21.5733 26.2953 21.46C26.2153 21.3467 26.082 21.29 25.8953 21.29C25.7086 21.29 25.5753 21.3467 25.4953 21.46C25.422 21.5733 25.3786 21.7 25.3653 21.84C25.3586 21.9933 25.3553 22.1333 25.3553 22.26C25.3553 22.38 25.3586 22.5167 25.3653 22.67C25.3786 22.7633 25.3986 22.8533 25.4253 22.94C25.4586 23.0267 25.512 23.0967 25.5853 23.15C25.6653 23.2033 25.7686 23.23 25.8953 23.23ZM21.7853 20.53C21.332 20.53 20.972 20.4133 20.7053 20.18C20.4453 19.94 20.302 19.62 20.2753 19.22C20.262 19.0467 20.2553 18.8967 20.2553 18.77C20.262 18.6367 20.2686 18.4767 20.2753 18.29C20.2953 17.8833 20.432 17.56 20.6853 17.32C20.9453 17.0733 21.312 16.95 21.7853 16.95C22.2653 16.95 22.632 17.0733 22.8853 17.32C23.1386 17.56 23.2753 17.8833 23.2953 18.29C23.3086 18.4767 23.3153 18.6367 23.3153 18.77C23.3153 18.8967 23.3086 19.0467 23.2953 19.22C23.2753 19.62 23.132 19.94 22.8653 20.18C22.5986 20.4133 22.2386 20.53 21.7853 20.53ZM21.7853 19.72C21.912 19.72 22.012 19.6933 22.0853 19.64C22.1586 19.5867 22.212 19.5167 22.2453 19.43C22.2853 19.3433 22.3086 19.2567 22.3153 19.17C22.3286 19.01 22.3353 18.87 22.3353 18.75C22.3353 18.6233 22.3286 18.4867 22.3153 18.34C22.3086 18.2 22.2653 18.0733 22.1853 17.96C22.1053 17.84 21.972 17.78 21.7853 17.78C21.5986 17.78 21.4653 17.84 21.3853 17.96C21.312 18.0733 21.2686 18.2 21.2553 18.34C21.2486 18.4867 21.2453 18.6233 21.2453 18.75C21.2453 18.87 21.2486 19.01 21.2553 19.17C21.2686 19.2567 21.292 19.3433 21.3253 19.43C21.3586 19.5167 21.412 19.5867 21.4853 19.64C21.5586 19.6933 21.6586 19.72 21.7853 19.72Z" fill="black"/>
</svg>
