<svg width="42" height="40" viewBox="0 0 42 40" fill="none" xmlns="http://www.w3.org/2000/svg">
<path fill-rule="evenodd" clip-rule="evenodd" d="M18.1743 0.0950359C15.5782 0.397556 12.6387 1.34387 10.4828 2.57112C4.85726 5.77364 1.14859 11.1495 0.134019 17.5724C-0.0438135 18.6983 -0.044944 22.3698 0.132271 23.5221C0.659292 26.9494 2.05831 30.2446 4.16937 33.0305C4.92387 34.0261 6.43853 35.6517 6.61174 35.6517C6.67002 35.6517 6.8571 35.3775 7.02743 35.0421C7.90837 33.3086 8.98503 31.8742 10.5511 30.3476C11.7332 29.1954 12.8176 28.4083 14.1396 27.7428C15.6662 26.9743 15.8358 26.9394 16.4723 27.2619C17.4847 27.775 18.7008 28.063 20.094 28.1196C21.6582 28.1833 22.6821 28.0138 23.9742 27.4772C24.4691 27.2717 24.9703 27.0802 25.0882 27.0516C25.3417 26.9902 27.0016 27.7423 27.9967 28.3696C29.9302 29.5886 31.7904 31.4542 33.0828 33.4705C33.3453 33.8798 33.5599 34.2333 33.5599 34.256C33.5599 34.2787 33.7537 34.6334 33.9905 35.0442L34.4211 35.791L35.1282 35.0275C36.8128 33.2087 38.1023 31.4017 38.9008 29.7411C39.4978 28.4995 39.5914 28.2685 40.0375 26.9343C40.8334 24.5539 41.1295 22.4235 41.0323 19.7751C40.8767 15.5267 39.529 11.6632 37.0225 8.27984C33.7191 3.82098 28.5697 0.815102 23.0781 0.140059C21.7207 -0.0267745 19.4029 -0.0480522 18.1743 0.0950359ZM22.5096 11.2304C22.8488 11.3198 23.5196 11.5883 24.0001 11.8272C24.7008 12.1755 25.0575 12.4452 25.8009 13.189C26.84 14.2287 27.3643 15.0478 27.7765 16.2752C28.0247 17.014 28.0532 17.2491 28.0566 18.588C28.0599 19.8797 28.0287 20.1733 27.8224 20.7893C26.7977 23.8479 24.3486 25.8739 21.3064 26.1796C18.771 26.4343 16.195 25.3938 14.6346 23.4845C13.9697 22.671 13.2466 21.1917 13.0406 20.2238C12.8184 19.1787 12.8966 17.3642 13.2065 16.378C14.037 13.7357 16.2724 11.6973 18.9633 11.1285C19.7979 10.9521 21.6558 11.0055 22.5096 11.2304Z" fill="#EBF9FF"/>
<path d="M7.02743 35.0421C6.8571 35.3775 6.67002 35.6517 6.61174 35.6517C11.0111 38.9019 22.7321 43.4801 34.4211 35.791L33.9905 35.0442C33.7537 34.6334 33.5599 34.2787 33.5599 34.256C33.5599 34.2333 33.3453 33.8798 33.0828 33.4705C31.7904 31.4542 29.9302 29.5886 27.9967 28.3696C27.0016 27.7423 25.3417 26.9902 25.0882 27.0516C24.9703 27.0802 24.4691 27.2717 23.9742 27.4772C22.6821 28.0138 21.6582 28.1833 20.094 28.1196C18.7008 28.063 17.4847 27.775 16.4723 27.2619C15.8358 26.9394 15.6662 26.9743 14.1396 27.7428C12.8176 28.4083 11.7332 29.1954 10.5511 30.3476C8.98503 31.8742 7.90837 33.3086 7.02743 35.0421Z" fill="#0B92D2"/>
<path d="M22.5096 11.2304C22.8488 11.3198 23.5196 11.5883 24.0001 11.8272C24.7008 12.1755 25.0575 12.4452 25.8009 13.189C26.84 14.2287 27.3643 15.0478 27.7765 16.2752C28.0247 17.014 28.0532 17.2491 28.0566 18.588C28.0599 19.8797 28.0287 20.1733 27.8224 20.7893C26.7977 23.8479 24.3486 25.8739 21.3064 26.1796C18.771 26.4343 16.195 25.3938 14.6346 23.4845C13.9697 22.671 13.2466 21.1917 13.0406 20.2238C12.8184 19.1787 12.8966 17.3642 13.2065 16.378C14.037 13.7357 16.2724 11.6973 18.9633 11.1285C19.7979 10.9521 21.6558 11.0055 22.5096 11.2304Z" fill="#0B92D2"/>
</svg>
