<svg width="21" height="21" viewBox="0 0 21 21" fill="none" xmlns="http://www.w3.org/2000/svg">
<path d="M8.4 3.58537H12.6C12.6 3.042 12.3787 2.52088 11.9849 2.13666C11.5911 1.75244 11.057 1.53659 10.5 1.53659C9.94304 1.53659 9.4089 1.75244 9.01508 2.13666C8.62125 2.52088 8.4 3.042 8.4 3.58537ZM6.825 3.58537C6.825 3.11453 6.92006 2.6483 7.10474 2.21331C7.28943 1.77831 7.56013 1.38306 7.90138 1.05013C8.24264 0.717197 8.64777 0.453101 9.09364 0.27292C9.53951 0.0927383 10.0174 0 10.5 0C10.9826 0 11.4605 0.0927383 11.9064 0.27292C12.3522 0.453101 12.7574 0.717197 13.0986 1.05013C13.4399 1.38306 13.7106 1.77831 13.8953 2.21331C14.0799 2.6483 14.175 3.11453 14.175 3.58537H20.2125C20.4214 3.58537 20.6217 3.66631 20.7693 3.81039C20.917 3.95448 21 4.14989 21 4.35366C21 4.55742 20.917 4.75284 20.7693 4.89692C20.6217 5.04101 20.4214 5.12195 20.2125 5.12195H18.8265L17.598 17.5283C17.5038 18.479 17.0499 19.3612 16.3251 20.0031C15.6002 20.645 14.6562 21.0004 13.6773 21H7.3227C6.34396 21.0001 5.40026 20.6446 4.6756 20.0027C3.95094 19.3609 3.49727 18.4788 3.40305 17.5283L2.1735 5.12195H0.7875C0.578642 5.12195 0.378338 5.04101 0.230653 4.89692C0.0829684 4.75284 0 4.55742 0 4.35366C0 4.14989 0.0829684 3.95448 0.230653 3.81039C0.378338 3.66631 0.578642 3.58537 0.7875 3.58537H6.825ZM8.925 8.45122C8.925 8.24746 8.84203 8.05204 8.69435 7.90795C8.54666 7.76387 8.34636 7.68293 8.1375 7.68293C7.92864 7.68293 7.72834 7.76387 7.58065 7.90795C7.43297 8.05204 7.35 8.24746 7.35 8.45122V16.1341C7.35 16.3379 7.43297 16.5333 7.58065 16.6774C7.72834 16.8215 7.92864 16.9024 8.1375 16.9024C8.34636 16.9024 8.54666 16.8215 8.69435 16.6774C8.84203 16.5333 8.925 16.3379 8.925 16.1341V8.45122ZM12.8625 7.68293C13.0714 7.68293 13.2717 7.76387 13.4193 7.90795C13.567 8.05204 13.65 8.24746 13.65 8.45122V16.1341C13.65 16.3379 13.567 16.5333 13.4193 16.6774C13.2717 16.8215 13.0714 16.9024 12.8625 16.9024C12.6536 16.9024 12.4533 16.8215 12.3057 16.6774C12.158 16.5333 12.075 16.3379 12.075 16.1341V8.45122C12.075 8.24746 12.158 8.05204 12.3057 7.90795C12.4533 7.76387 12.6536 7.68293 12.8625 7.68293ZM4.9707 17.3808C5.02733 17.9511 5.29961 18.4803 5.73444 18.8653C6.16927 19.2503 6.73548 19.4635 7.3227 19.4634H13.6773C14.2645 19.4635 14.8307 19.2503 15.2656 18.8653C15.7004 18.4803 15.9727 17.9511 16.0293 17.3808L17.2452 5.12195H3.7548L4.9707 17.3808Z" fill="#F44336"/>
</svg>
