<svg width="28" height="20" viewBox="0 0 28 20" fill="none" xmlns="http://www.w3.org/2000/svg">
<path d="M17.3435 9.79999C17.3435 10.8002 16.9462 11.7595 16.2389 12.4668C15.5316 13.1741 14.5724 13.5714 13.5721 13.5714C12.5719 13.5714 11.6126 13.1741 10.9053 12.4668C10.198 11.7595 9.80069 10.8002 9.80069 9.79999C9.80069 8.79975 10.198 7.84047 10.9053 7.13319C11.6126 6.42591 12.5719 6.02856 13.5721 6.02856C14.5724 6.02856 15.5316 6.42591 16.2389 7.13319C16.9462 7.84047 17.3435 8.79975 17.3435 9.79999Z" stroke="black" stroke-width="1.8" stroke-linecap="round" stroke-linejoin="round"/>
<path d="M1 9.8C3.01143 4.64949 7.70811 1 13.5714 1C19.4347 1 24.1314 4.64949 26.1429 9.8C24.1314 14.9505 19.4347 18.6 13.5714 18.6C7.70811 18.6 3.01143 14.9505 1 9.8Z" stroke="black" stroke-width="1.8" stroke-linecap="round" stroke-linejoin="round"/>
</svg>
