<svg width="36" height="37" viewBox="0 0 36 37" fill="none" xmlns="http://www.w3.org/2000/svg">
<ellipse cx="18" cy="18.5" rx="18" ry="18.5" fill="white"/>
<path d="M31.7277 16.2581H30.6V16.2H18V21.8H25.9121C24.7578 25.0599 21.6561 27.4 18 27.4C13.3611 27.4 9.6 23.6389 9.6 19C9.6 14.3611 13.3611 10.6 18 10.6C20.1413 10.6 22.0894 11.4078 23.5727 12.7273L27.5326 8.7674C25.0322 6.4371 21.6876 5 18 5C10.2685 5 4 11.2685 4 19C4 26.7315 10.2685 33 18 33C25.7315 33 32 26.7315 32 19C32 18.0613 31.9034 17.145 31.7277 16.2581Z" fill="#FFC107"/>
<path d="M5.61719 12.4837L10.2169 15.857C11.4615 12.7756 14.4757 10.6 18.003 10.6C20.1443 10.6 22.0924 11.4078 23.5757 12.7273L27.5356 8.7674C25.0352 6.4371 21.6906 5 18.003 5C12.6256 5 7.96219 8.0359 5.61719 12.4837Z" fill="#FF3D00"/>
<path d="M18.0026 33.0001C21.6188 33.0001 24.9046 31.6162 27.3889 29.3657L23.0559 25.6991C21.603 26.804 19.8278 27.4015 18.0026 27.4001C14.3612 27.4001 11.2693 25.0782 10.1045 21.8379L5.53906 25.3554C7.85606 29.8893 12.5615 33.0001 18.0026 33.0001Z" fill="#4CAF50"/>
<path d="M31.7277 16.2583H30.6V16.2002H18V21.8002H25.9121C25.3599 23.3517 24.3653 24.7074 23.0512 25.6999L23.0533 25.6985L27.3863 29.3651C27.0797 29.6437 32 26.0002 32 19.0002C32 18.0615 31.9034 17.1452 31.7277 16.2583Z" fill="#1976D2"/>
</svg>
