<svg width="21" height="16" viewBox="0 0 21 16" fill="none" xmlns="http://www.w3.org/2000/svg">
<path d="M1.5 0H9C9.39782 0 9.77936 0.168571 10.0607 0.468629C10.342 0.768687 10.5 1.17565 10.5 1.6C10.5 2.02435 10.342 2.43131 10.0607 2.73137C9.77936 3.03143 9.39782 3.2 9 3.2H1.5C1.10218 3.2 0.720644 3.03143 0.43934 2.73137C0.158035 2.43131 0 2.02435 0 1.6C0 1.17565 0.158035 0.768687 0.43934 0.468629C0.720644 0.168571 1.10218 0 1.5 0ZM12 12.8H19.5C19.8978 12.8 20.2794 12.9686 20.5607 13.2686C20.842 13.5687 21 13.9757 21 14.4C21 14.8243 20.842 15.2313 20.5607 15.5314C20.2794 15.8314 19.8978 16 19.5 16H12C11.6022 16 11.2206 15.8314 10.9393 15.5314C10.658 15.2313 10.5 14.8243 10.5 14.4C10.5 13.9757 10.658 13.5687 10.9393 13.2686C11.2206 12.9686 11.6022 12.8 12 12.8ZM1.5 6.4H19.5C19.8978 6.4 20.2794 6.56857 20.5607 6.86863C20.842 7.16869 21 7.57565 21 8C21 8.42435 20.842 8.83131 20.5607 9.13137C20.2794 9.43143 19.8978 9.6 19.5 9.6H1.5C1.10218 9.6 0.720644 9.43143 0.43934 9.13137C0.158035 8.83131 0 8.42435 0 8C0 7.57565 0.158035 7.16869 0.43934 6.86863C0.720644 6.56857 1.10218 6.4 1.5 6.4Z" fill="black"/>
</svg>
