<svg width="42" height="42" viewBox="0 0 42 42" fill="none" xmlns="http://www.w3.org/2000/svg">
<circle cx="20.6971" cy="20.6971" r="19.1971" stroke="#0B92D2" stroke-opacity="0.27" stroke-width="3"/>
<mask id="path-2-inside-1_1_78" fill="white">
<path d="M1.49732 20.6971C0.670371 20.6971 -0.00563833 21.3683 0.054129 22.1931C0.314424 25.7851 1.50858 29.2566 3.52994 32.2581C5.8308 35.6747 9.09879 38.327 12.9157 39.8756C16.7326 41.4243 20.9247 41.7988 24.9557 40.9512C28.9866 40.1037 32.673 38.0726 35.5431 35.118C38.4131 32.1634 40.3362 28.4196 41.0664 24.3657C41.7965 20.3119 41.3004 16.1323 39.6416 12.362C37.9828 8.59172 35.2367 5.40213 31.7547 3.20145C28.6958 1.26811 25.1911 0.175265 21.593 0.0193904C20.7668 -0.0164006 20.1155 0.678817 20.1395 1.50541C20.1635 2.33201 20.8541 2.97602 21.6798 3.02192C24.6813 3.18878 27.5998 4.11804 30.1548 5.73287C33.1329 7.61513 35.4817 10.3432 36.9005 13.568C38.3193 16.7928 38.7436 20.3676 38.1192 23.8349C37.4947 27.3022 35.8498 30.5043 33.395 33.0315C30.9402 35.5586 27.7872 37.2958 24.3395 38.0207C20.8918 38.7456 17.3062 38.4253 14.0416 37.1007C10.7769 35.7761 7.98178 33.5076 6.01383 30.5854C4.32549 28.0783 3.31186 25.188 3.05791 22.1926C2.98805 21.3687 2.32426 20.6971 1.49732 20.6971Z"/>
</mask>
<path d="M1.49732 20.6971C0.670371 20.6971 -0.00563833 21.3683 0.054129 22.1931C0.314424 25.7851 1.50858 29.2566 3.52994 32.2581C5.8308 35.6747 9.09879 38.327 12.9157 39.8756C16.7326 41.4243 20.9247 41.7988 24.9557 40.9512C28.9866 40.1037 32.673 38.0726 35.5431 35.118C38.4131 32.1634 40.3362 28.4196 41.0664 24.3657C41.7965 20.3119 41.3004 16.1323 39.6416 12.362C37.9828 8.59172 35.2367 5.40213 31.7547 3.20145C28.6958 1.26811 25.1911 0.175265 21.593 0.0193904C20.7668 -0.0164006 20.1155 0.678817 20.1395 1.50541C20.1635 2.33201 20.8541 2.97602 21.6798 3.02192C24.6813 3.18878 27.5998 4.11804 30.1548 5.73287C33.1329 7.61513 35.4817 10.3432 36.9005 13.568C38.3193 16.7928 38.7436 20.3676 38.1192 23.8349C37.4947 27.3022 35.8498 30.5043 33.395 33.0315C30.9402 35.5586 27.7872 37.2958 24.3395 38.0207C20.8918 38.7456 17.3062 38.4253 14.0416 37.1007C10.7769 35.7761 7.98178 33.5076 6.01383 30.5854C4.32549 28.0783 3.31186 25.188 3.05791 22.1926C2.98805 21.3687 2.32426 20.6971 1.49732 20.6971Z" stroke="#0B92D2" stroke-width="6" mask="url(#path-2-inside-1_1_78)"/>
<path d="M11.5082 24C11.4482 24 11.3982 23.98 11.3582 23.94C11.3182 23.8933 11.2982 23.84 11.2982 23.78C11.2982 23.7533 11.3049 23.7233 11.3182 23.69L13.6782 18.34H10.6082C10.5415 18.34 10.4815 18.3167 10.4282 18.27C10.3815 18.2233 10.3582 18.1667 10.3582 18.1V17.25C10.3582 17.1767 10.3815 17.1167 10.4282 17.07C10.4815 17.0233 10.5415 17 10.6082 17H15.1382C15.2182 17 15.2782 17.0233 15.3182 17.07C15.3649 17.1167 15.3882 17.1767 15.3882 17.25V18C15.3882 18.1 15.3782 18.1833 15.3582 18.25C15.3449 18.31 15.3215 18.3733 15.2882 18.44L12.9382 23.76C12.9182 23.8 12.8815 23.85 12.8282 23.91C12.7815 23.97 12.7049 24 12.5982 24H11.5082ZM18.7844 24.11C18.1844 24.11 17.681 24.0133 17.2744 23.82C16.8677 23.6267 16.5577 23.3733 16.3444 23.06C16.1377 22.7467 16.0277 22.4133 16.0144 22.06C16.0144 22 16.0344 21.95 16.0744 21.91C16.1144 21.87 16.1644 21.85 16.2244 21.85H17.3544C17.4344 21.85 17.4977 21.87 17.5444 21.91C17.5977 21.9433 17.6377 21.99 17.6644 22.05C17.731 22.23 17.8177 22.3767 17.9244 22.49C18.0377 22.6033 18.1677 22.6867 18.3144 22.74C18.461 22.7933 18.6177 22.82 18.7844 22.82C18.9977 22.82 19.1944 22.7767 19.3744 22.69C19.5544 22.5967 19.6977 22.4633 19.8044 22.29C19.911 22.1167 19.9644 21.9033 19.9644 21.65C19.9644 21.43 19.9144 21.2367 19.8144 21.07C19.7144 20.9033 19.5744 20.7733 19.3944 20.68C19.2144 20.5867 19.011 20.54 18.7844 20.54C18.611 20.54 18.4677 20.56 18.3544 20.6C18.2477 20.64 18.1577 20.69 18.0844 20.75C18.011 20.8033 17.9444 20.8533 17.8844 20.9C17.8244 20.94 17.7577 20.96 17.6844 20.96H16.5744C16.5144 20.96 16.461 20.94 16.4144 20.9C16.3744 20.8533 16.3544 20.8 16.3544 20.74L16.7044 17.29C16.7177 17.1967 16.751 17.1267 16.8044 17.08C16.8644 17.0267 16.9344 17 17.0144 17H20.8944C20.9677 17 21.0277 17.0233 21.0744 17.07C21.121 17.1167 21.1444 17.1767 21.1444 17.25V18.05C21.1444 18.1167 21.121 18.1733 21.0744 18.22C21.0277 18.2667 20.9677 18.29 20.8944 18.29H18.0044L17.8544 19.76C17.9877 19.6733 18.151 19.5967 18.3444 19.53C18.5444 19.4567 18.821 19.42 19.1744 19.42C19.4944 19.42 19.7977 19.4733 20.0844 19.58C20.3777 19.68 20.6377 19.83 20.8644 20.03C21.091 20.23 21.2677 20.47 21.3944 20.75C21.5277 21.0233 21.5944 21.3367 21.5944 21.69C21.5944 22.17 21.481 22.5933 21.2544 22.96C21.0277 23.32 20.7044 23.6033 20.2844 23.81C19.8644 24.01 19.3644 24.11 18.7844 24.11ZM23.0827 24C22.9361 24 22.8627 23.9333 22.8627 23.8C22.8627 23.76 22.8761 23.7233 22.9027 23.69L27.8427 17.19C27.8894 17.13 27.9361 17.0833 27.9827 17.05C28.0294 17.0167 28.0961 17 28.1827 17H28.8027C28.9494 17 29.0227 17.0667 29.0227 17.2C29.0227 17.24 29.0094 17.2767 28.9827 17.31L24.0427 23.81C23.9961 23.87 23.9494 23.9167 23.9027 23.95C23.8627 23.9833 23.7961 24 23.7027 24H23.0827ZM28.0027 24.05C27.5494 24.05 27.1894 23.93 26.9227 23.69C26.6627 23.45 26.5194 23.13 26.4927 22.73C26.4794 22.5567 26.4727 22.4033 26.4727 22.27C26.4794 22.1367 26.4861 21.9767 26.4927 21.79C26.5127 21.39 26.6494 21.0667 26.9027 20.82C27.1627 20.5733 27.5294 20.45 28.0027 20.45C28.4761 20.45 28.8394 20.5733 29.0927 20.82C29.3527 21.0667 29.4927 21.39 29.5127 21.79C29.5261 21.9767 29.5327 22.1367 29.5327 22.27C29.5327 22.4033 29.5261 22.5567 29.5127 22.73C29.4927 23.13 29.3461 23.45 29.0727 23.69C28.8061 23.93 28.4494 24.05 28.0027 24.05ZM28.0027 23.23C28.1294 23.23 28.2294 23.2033 28.3027 23.15C28.3761 23.0967 28.4294 23.0267 28.4627 22.94C28.5027 22.8533 28.5261 22.7633 28.5327 22.67C28.5461 22.5167 28.5527 22.38 28.5527 22.26C28.5527 22.1333 28.5461 21.9933 28.5327 21.84C28.5261 21.7 28.4827 21.5733 28.4027 21.46C28.3227 21.3467 28.1894 21.29 28.0027 21.29C27.8161 21.29 27.6827 21.3467 27.6027 21.46C27.5294 21.5733 27.4861 21.7 27.4727 21.84C27.4661 21.9933 27.4627 22.1333 27.4627 22.26C27.4627 22.38 27.4661 22.5167 27.4727 22.67C27.4861 22.7633 27.5061 22.8533 27.5327 22.94C27.5661 23.0267 27.6194 23.0967 27.6927 23.15C27.7727 23.2033 27.8761 23.23 28.0027 23.23ZM23.8927 20.53C23.4394 20.53 23.0794 20.4133 22.8127 20.18C22.5527 19.94 22.4094 19.62 22.3827 19.22C22.3694 19.0467 22.3627 18.8967 22.3627 18.77C22.3694 18.6367 22.3761 18.4767 22.3827 18.29C22.4027 17.8833 22.5394 17.56 22.7927 17.32C23.0527 17.0733 23.4194 16.95 23.8927 16.95C24.3727 16.95 24.7394 17.0733 24.9927 17.32C25.2461 17.56 25.3827 17.8833 25.4027 18.29C25.4161 18.4767 25.4227 18.6367 25.4227 18.77C25.4227 18.8967 25.4161 19.0467 25.4027 19.22C25.3827 19.62 25.2394 19.94 24.9727 20.18C24.7061 20.4133 24.3461 20.53 23.8927 20.53ZM23.8927 19.72C24.0194 19.72 24.1194 19.6933 24.1927 19.64C24.2661 19.5867 24.3194 19.5167 24.3527 19.43C24.3927 19.3433 24.4161 19.2567 24.4227 19.17C24.4361 19.01 24.4427 18.87 24.4427 18.75C24.4427 18.6233 24.4361 18.4867 24.4227 18.34C24.4161 18.2 24.3727 18.0733 24.2927 17.96C24.2127 17.84 24.0794 17.78 23.8927 17.78C23.7061 17.78 23.5727 17.84 23.4927 17.96C23.4194 18.0733 23.3761 18.2 23.3627 18.34C23.3561 18.4867 23.3527 18.6233 23.3527 18.75C23.3527 18.87 23.3561 19.01 23.3627 19.17C23.3761 19.2567 23.3994 19.3433 23.4327 19.43C23.4661 19.5167 23.5194 19.5867 23.5927 19.64C23.6661 19.6933 23.7661 19.72 23.8927 19.72Z" fill="black"/>
</svg>
