{
	"asset":{
		"generator":"Khronos glTF Blender I/O v4.1.63",
		"version":"2.0"
	},
	"scene":0,
	"scenes":[
		{
			"name":"Scene",
			"nodes":[
				0
			]
		}
	],
	"nodes":[
		{
			"mesh":0,
			"name":"Cube"
		}
	],
	"materials":[
		{
			"doubleSided":true,
			"name":"Material",
			"pbrMetallicRoughness":{
				"baseColorTexture":{
					"index":0
				},
				"metallicFactor":0,
				"roughnessFactor":0.5
			}
		},
		{
			"doubleSided":true,
			"name":"Material.001",
			"pbrMetallicRoughness":{
				"baseColorFactor":[
					0.0026374913286417723,
					0.0026374913286417723,
					0.0026374913286417723,
					1
				],
				"metallicFactor":0,
				"roughnessFactor":0.5
			}
		}
	],
	"meshes":[
		{
			"name":"Cube",
			"primitives":[
				{
					"attributes":{
						"POSITION":0,
						"NORMAL":1,
						"TEXCOORD_0":2
					},
					"indices":3,
					"material":0
				},
				{
					"attributes":{
						"POSITION":4,
						"NORMAL":5,
						"TEXCOORD_0":6
					},
					"indices":7,
					"material":1
				}
			]
		}
	],
	"textures":[
		{
			"sampler":0,
			"source":0
		}
	],
	"images":[
		{
			"mimeType":"image/png",
			"name":"BakedTexture",
			"uri":"BakedTexture.png"
		}
	],
	"accessors":[
		{
			"bufferView":0,
			"componentType":5126,
			"count":888,
			"max":[
				0.8189631104469299,
				0.816846489906311,
				0.8189631700515747
			],
			"min":[
				-0.8189631104469299,
				-0.816846489906311,
				-0.8189631700515747
			],
			"type":"VEC3"
		},
		{
			"bufferView":1,
			"componentType":5126,
			"count":888,
			"type":"VEC3"
		},
		{
			"bufferView":2,
			"componentType":5126,
			"count":888,
			"type":"VEC2"
		},
		{
			"bufferView":3,
			"componentType":5123,
			"count":4320,
			"type":"SCALAR"
		},
		{
			"bufferView":4,
			"componentType":5126,
			"count":570,
			"max":[
				0.8189631104469299,
				0.816846489906311,
				0.8189631700515747
			],
			"min":[
				-0.8189631104469299,
				-0.816846489906311,
				-0.8189631700515747
			],
			"type":"VEC3"
		},
		{
			"bufferView":5,
			"componentType":5126,
			"count":570,
			"type":"VEC3"
		},
		{
			"bufferView":6,
			"componentType":5126,
			"count":570,
			"type":"VEC2"
		},
		{
			"bufferView":7,
			"componentType":5123,
			"count":2064,
			"type":"SCALAR"
		}
	],
	"bufferViews":[
		{
			"buffer":0,
			"byteLength":10656,
			"byteOffset":0,
			"target":34962
		},
		{
			"buffer":0,
			"byteLength":10656,
			"byteOffset":10656,
			"target":34962
		},
		{
			"buffer":0,
			"byteLength":7104,
			"byteOffset":21312,
			"target":34962
		},
		{
			"buffer":0,
			"byteLength":8640,
			"byteOffset":28416,
			"target":34963
		},
		{
			"buffer":0,
			"byteLength":6840,
			"byteOffset":37056,
			"target":34962
		},
		{
			"buffer":0,
			"byteLength":6840,
			"byteOffset":43896,
			"target":34962
		},
		{
			"buffer":0,
			"byteLength":4560,
			"byteOffset":50736,
			"target":34962
		},
		{
			"buffer":0,
			"byteLength":4128,
			"byteOffset":55296,
			"target":34963
		}
	],
	"samplers":[
		{
			"magFilter":9729,
			"minFilter":9987,
			"wrapS":33071,
			"wrapT":33071
		}
	],
	"buffers":[
		{
			"byteLength":59424,
			"uri":"basket_ball.bin"
		}
	]
}
