<svg width="13" height="13" viewBox="0 0 13 13" fill="none" xmlns="http://www.w3.org/2000/svg">
<g clip-path="url(#clip0_237_2)">
<path d="M0.316168 0.344279C0.518873 0.142252 0.793648 0.0287757 1.08014 0.0287757C1.36663 0.0287757 1.6414 0.142252 1.84411 0.344279L6.48558 4.976L11.1271 0.344279C11.2592 0.202272 11.4273 0.0984587 11.6136 0.0437783C11.7999 -0.0109021 11.9975 -0.0144254 12.1857 0.0335794C12.3738 0.0815841 12.5455 0.17934 12.6826 0.316547C12.8198 0.453754 12.9173 0.625332 12.9649 0.813205C13.0129 1.00075 13.0095 1.19773 12.955 1.38349C12.9004 1.56925 12.7968 1.73695 12.655 1.86901L8.01352 6.50072L12.655 11.1324C12.7973 11.2643 12.9013 11.432 12.9561 11.6179C13.0109 11.8039 13.0145 12.0011 12.9664 12.1888C12.9182 12.3766 12.8203 12.5479 12.6828 12.6848C12.5453 12.8216 12.3734 12.9189 12.1851 12.9664C11.9971 13.0143 11.7997 13.0109 11.6136 12.9565C11.4274 12.9021 11.2594 12.7987 11.1271 12.6572L6.48558 8.02545L1.84411 12.6572C1.63921 12.848 1.36807 12.9519 1.08787 12.9471C0.807662 12.9422 0.540284 12.829 0.342114 12.6313C0.143954 12.4335 0.0304915 12.1667 0.0256511 11.8871C0.0208107 11.6075 0.124971 11.3369 0.316168 11.1324L4.95764 6.50072L0.316168 1.86901C0.113716 1.66673 0 1.39253 0 1.10664C0 0.820756 0.113716 0.546558 0.316168 0.344279Z" fill="#0B92D2"/>
</g>
<defs>
<clipPath id="clip0_237_2">
<rect width="13" height="13" fill="white"/>
</clipPath>
</defs>
</svg>
