<!-- <svg width="20" height="20" viewBox="0 0 20 20" fill="none" xmlns="http://www.w3.org/2000/svg">
<path d="M12.6813 3.70721L16.2756 7.30551M14.4785 1.90805C14.7073 1.63731 14.9904 1.41694 15.3096 1.26097C15.6289 1.10501 15.9773 1.01688 16.3328 1.0022C16.6882 0.987513 17.0428 1.0466 17.374 1.1757C17.7052 1.30479 18.0056 1.50106 18.2563 1.752C18.5069 2.00293 18.7023 2.30302 18.8298 2.63315C18.9573 2.96328 19.0143 3.31619 18.997 3.66941C18.9797 4.02262 18.8886 4.36838 18.7295 4.68466C18.5703 5.00093 18.3467 5.28078 18.0727 5.50636L5.9421 17.6506L1 19L2.34785 14.0523L14.4785 1.90805Z" stroke="#0B92D2" stroke-width="1.5" stroke-linecap="round" stroke-linejoin="round"/>
</svg> -->

<svg xmlns="http://www.w3.org/2000/svg" viewBox="0 0 24 24">
   <path fill="currentColor" d="M20.71 7.04c.39-.39.39-1.04 0-1.41l-2.34-2.34c-.37-.39-1.02-.39-1.41 0l-1.84 1.83l3.75 3.75M3 17.25V21h3.75L17.81 9.93l-3.75-3.75z"/>
</svg>