<svg width="26" height="25" viewBox="0 0 26 25" fill="none" xmlns="http://www.w3.org/2000/svg">
<path fill-rule="evenodd" clip-rule="evenodd" d="M1.24375 13.6924C0.0161891 14.8598 -0.00207913 16.8113 1.20341 18.0014L7.24907 23.9698C8.39707 25.1031 10.2358 25.1257 11.4113 24.0209L24.7521 11.4823C25.9833 10.3251 26.0165 8.37993 24.8254 7.18149L18.7631 1.08146C17.6133 -0.0754514 15.7499 -0.101768 14.5679 1.02221L1.24375 13.6924ZM10.0035 22.122C9.6206 22.5321 8.97527 22.547 8.57385 22.155L3.46269 17.1633C3.04754 16.7579 3.06352 16.0854 3.49746 15.7001L8.6102 11.1608C9.00214 10.8129 9.59625 10.8265 9.97176 11.1922L14.6318 15.7299C15.0216 16.1095 15.0364 16.7311 14.6651 17.1288L10.0035 22.122Z" fill="black"/>
<path d="M3.49746 15.7001C3.06352 16.0854 3.04754 16.7579 3.46269 17.1633L8.57385 22.155C8.97527 22.547 9.6206 22.5321 10.0035 22.122L14.6651 17.1288C15.0364 16.7311 15.0216 16.1095 14.6318 15.7299L9.97176 11.1922C9.59625 10.8265 9.00214 10.8129 8.6102 11.1608L3.49746 15.7001Z" fill="white"/>
<path fill-rule="evenodd" clip-rule="evenodd" d="M1.24375 13.6924C0.0161891 14.8598 -0.00207913 16.8113 1.20341 18.0014L7.24907 23.9698C8.39707 25.1031 10.2358 25.1257 11.4113 24.0209L24.7521 11.4823C25.9833 10.3251 26.0165 8.37993 24.8254 7.18149L18.7631 1.08146C17.6133 -0.0754514 15.7499 -0.101768 14.5679 1.02221L1.24375 13.6924ZM10.0035 22.122C9.6206 22.5321 8.97527 22.547 8.57385 22.155L3.46269 17.1633C3.04754 16.7579 3.06352 16.0854 3.49746 15.7001L8.6102 11.1608C9.00214 10.8129 9.59625 10.8265 9.97176 11.1922L14.6318 15.7299C15.0216 16.1095 15.0364 16.7311 14.6651 17.1288L10.0035 22.122Z" stroke="black"/>
<path d="M3.49746 15.7001C3.06352 16.0854 3.04754 16.7579 3.46269 17.1633L8.57385 22.155C8.97527 22.547 9.6206 22.5321 10.0035 22.122L14.6651 17.1288C15.0364 16.7311 15.0216 16.1095 14.6318 15.7299L9.97176 11.1922C9.59625 10.8265 9.00214 10.8129 8.6102 11.1608L3.49746 15.7001Z" stroke="black"/>
</svg>
