<svg width="25" height="25" viewBox="0 0 25 25" fill="none" xmlns="http://www.w3.org/2000/svg">
<g clip-path="url(#clip0_235_2)">
<path fill-rule="evenodd" clip-rule="evenodd" d="M17.9094 0.997721L17.987 1.01847C19.2799 1.35853 20.3037 1.62712 21.1089 1.91301C21.9328 2.20466 22.6052 2.53781 23.1588 3.04617C23.9645 3.78685 24.5282 4.74524 24.7785 5.80012C24.9513 6.52406 24.9102 7.26182 24.755 8.1068C24.6057 8.93448 24.3318 9.93855 23.9851 11.2054L23.3551 13.5098C23.0095 14.7767 22.7345 15.7808 22.4441 16.5716C22.1456 17.3785 21.8059 18.0379 21.2875 18.5808C20.557 19.3459 19.6178 19.8892 18.5817 20.1463C18.2781 20.8288 17.8358 21.4435 17.2817 21.9526C16.7281 22.461 16.0558 22.7942 15.2318 23.087C14.4267 23.3728 13.4029 23.6414 12.1111 23.9815L12.0323 24.0023C10.7394 24.3412 9.71682 24.6098 8.87287 24.7585C8.01129 24.9095 7.25903 24.9498 6.5197 24.7815C5.44423 24.5352 4.46742 23.9816 3.71281 23.1907C3.19563 22.6489 2.85476 21.9895 2.55621 21.1814C2.26588 20.3918 1.99201 19.3877 1.64526 18.1197L1.01524 15.8165C0.669671 14.5485 0.394625 13.5455 0.244172 12.7179C0.0901934 11.8729 0.049054 11.1351 0.220664 10.41C0.47184 9.35528 1.03633 8.39729 1.84273 7.65722C2.39518 7.15001 3.06751 6.81571 3.89148 6.5229C4.69663 6.23817 5.72042 5.96958 7.01219 5.62951L7.05216 5.61799L7.93489 5.38743C8.39565 3.77472 8.8 2.63464 9.58987 1.80811C10.3446 1.01767 11.3214 0.46447 12.3967 0.218454C13.1361 0.0501507 13.8871 0.0904973 14.7499 0.241509C15.5927 0.389063 16.6164 0.658809 17.9094 0.997721ZM7.40243 7.31716C6.11771 7.65492 5.19736 7.89931 4.48976 8.14946C3.77276 8.40307 3.35314 8.63823 3.04753 8.91951C2.49585 9.42593 2.10971 10.0814 1.93794 10.8031C1.84391 11.2043 1.84508 11.6792 1.98026 12.4135C2.11543 13.1594 2.37049 14.0931 2.72899 15.4073L3.33786 17.6344C3.69636 18.9485 3.9526 19.8823 4.21471 20.5935C4.47331 21.2967 4.71309 21.7094 4.99989 22.0091C5.51626 22.5502 6.18465 22.9289 6.92051 23.0973C7.32838 23.1896 7.81383 23.1873 8.56256 23.0558C9.32305 22.9233 10.2751 22.6731 11.6151 22.3215C12.955 21.9688 13.9071 21.7186 14.6335 21.4604C15.3493 21.2068 15.7701 20.9716 16.0758 20.6915C16.238 20.5417 16.3849 20.3803 16.5177 20.2085C16.2997 20.178 16.0825 20.1414 15.8665 20.099C15.0767 19.9445 14.1269 19.6955 12.9574 19.3877L12.8892 19.3705C11.5974 19.0304 10.5737 18.7618 9.76854 18.4759C8.94457 18.1843 8.27224 17.8511 7.71862 17.3427C6.91245 16.6022 6.34836 15.6438 6.09772 14.5888C5.92611 13.8649 5.96725 13.1271 6.12123 12.2821C6.27169 11.4544 6.54673 10.4504 6.8923 9.18349L7.40243 7.31716ZM14.4396 1.94413C13.6897 1.81157 13.2054 1.80926 12.7975 1.90263C12.0617 2.07109 11.3933 2.44979 10.8769 2.99084C10.3644 3.52688 10.0482 4.35686 9.50054 6.32578C9.41121 6.64625 9.31718 6.99093 9.21492 7.36557L8.60605 9.59271C8.24755 10.9069 7.99249 11.8406 7.85732 12.5865C7.72214 13.3208 7.71979 13.7969 7.815 14.1969C7.98677 14.9185 8.37291 15.574 8.92459 16.0805C9.2302 16.3617 9.65099 16.5958 10.3668 16.8505C11.0932 17.1076 12.0453 17.3577 13.3852 17.7105C14.59 18.0275 15.4833 18.2615 16.2098 18.4021C16.9326 18.5439 17.424 18.5785 17.8259 18.5301C17.9141 18.5186 17.9976 18.5047 18.0798 18.4863C18.8157 18.3178 19.4841 17.9391 20.0005 17.3981C20.2873 17.0984 20.527 16.6857 20.7856 15.9836C21.0477 15.2712 21.3028 14.3375 21.6625 13.0233L22.2713 10.7962C22.6299 9.48204 22.8849 8.54831 23.0201 7.80247C23.1541 7.06817 23.1576 6.59207 23.0624 6.19206C22.8906 5.47038 22.5045 4.81487 21.9528 4.30845C21.6472 4.02717 21.2264 3.79316 20.5106 3.5384C19.783 3.28134 18.8321 3.03119 17.4921 2.67844C16.1522 2.32685 15.2001 2.0767 14.4396 1.94413ZM11.6303 9.97197C11.6603 9.86228 11.7121 9.75946 11.7826 9.66939C11.8531 9.57931 11.9411 9.50375 12.0414 9.44702C12.1417 9.39028 12.2524 9.35349 12.3672 9.33873C12.4821 9.32398 12.5987 9.33154 12.7106 9.361L18.3878 10.8527C18.6074 10.9174 18.7926 11.0635 18.9041 11.26C19.0157 11.4564 19.0448 11.6878 18.9853 11.905C18.9258 12.1221 18.7824 12.308 18.5855 12.4232C18.3886 12.5384 18.1537 12.5738 17.9306 12.5219L12.2533 11.0302C12.0277 10.9708 11.8354 10.826 11.7186 10.6275C11.6017 10.4291 11.57 10.1933 11.6303 9.97197ZM10.7171 13.3127C10.747 13.2029 10.7988 13.0999 10.8694 13.0098C10.94 12.9196 11.0281 12.844 11.1285 12.7872C11.229 12.7305 11.3398 12.6937 11.4548 12.6791C11.5697 12.6644 11.6865 12.6721 11.7984 12.7017L15.2036 13.5963C15.4295 13.6556 15.622 13.8005 15.739 13.999C15.8559 14.1976 15.8876 14.4336 15.8272 14.6551C15.7667 14.8766 15.619 15.0655 15.4165 15.1801C15.214 15.2948 14.9734 15.3259 14.7475 15.2666L11.3412 14.3709C11.1156 14.3115 10.9232 14.1667 10.8064 13.9682C10.6896 13.7698 10.6579 13.534 10.7182 13.3127" fill="white"/>
</g>
<defs>
<clipPath id="clip0_235_2">
<rect width="25" height="25" fill="white"/>
</clipPath>
</defs>
</svg>
