<svg width="42" height="42" viewBox="0 0 42 42" fill="none" xmlns="http://www.w3.org/2000/svg">
<circle cx="20.6971" cy="20.6971" r="19.1971" stroke="#0B92D2" stroke-opacity="0.27" stroke-width="3"/>
<mask id="path-2-inside-1_1_69" fill="white">
<path d="M19.9872 39.8837C19.9566 40.71 20.6024 41.4104 21.4289 41.3812C23.6567 41.3023 25.8606 40.864 27.9545 40.08C30.5165 39.1207 32.8629 37.663 34.858 35.7913C36.8532 33.9195 38.4574 31.6707 39.578 29.1751C40.6986 26.6794 41.3134 23.9864 41.3867 21.2516C41.46 18.5169 40.9904 15.7948 40.0051 13.2427C39.0198 10.6906 37.5383 8.35911 35.6463 6.38314C33.7543 4.40717 31.4893 2.82589 28.9824 1.73074C26.9336 0.835712 24.7563 0.2799 22.5359 0.0818445C21.7122 0.00837557 21.0298 0.673136 21.0161 1.49997C21.0023 2.3268 21.6628 3.00166 22.4855 3.0852C24.3099 3.27047 26.0976 3.73842 27.7836 4.47495C29.9278 5.41164 31.8651 6.76413 33.4833 8.4542C35.1016 10.1443 36.3687 12.1384 37.2114 14.3212C38.0542 16.5041 38.4558 18.8323 38.3931 21.1714C38.3304 23.5104 37.8046 25.8138 36.8462 27.9484C35.8877 30.083 34.5155 32.0063 32.8091 33.6073C31.1026 35.2082 29.0957 36.455 26.9044 37.2755C25.1814 37.9206 23.3712 38.2922 21.5394 38.3794C20.7134 38.4188 20.0178 39.0573 19.9872 39.8837Z"/>
</mask>
<path d="M19.9872 39.8837C19.9566 40.71 20.6024 41.4104 21.4289 41.3812C23.6567 41.3023 25.8606 40.864 27.9545 40.08C30.5165 39.1207 32.8629 37.663 34.858 35.7913C36.8532 33.9195 38.4574 31.6707 39.578 29.1751C40.6986 26.6794 41.3134 23.9864 41.3867 21.2516C41.46 18.5169 40.9904 15.7948 40.0051 13.2427C39.0198 10.6906 37.5383 8.35911 35.6463 6.38314C33.7543 4.40717 31.4893 2.82589 28.9824 1.73074C26.9336 0.835712 24.7563 0.2799 22.5359 0.0818445C21.7122 0.00837557 21.0298 0.673136 21.0161 1.49997C21.0023 2.3268 21.6628 3.00166 22.4855 3.0852C24.3099 3.27047 26.0976 3.73842 27.7836 4.47495C29.9278 5.41164 31.8651 6.76413 33.4833 8.4542C35.1016 10.1443 36.3687 12.1384 37.2114 14.3212C38.0542 16.5041 38.4558 18.8323 38.3931 21.1714C38.3304 23.5104 37.8046 25.8138 36.8462 27.9484C35.8877 30.083 34.5155 32.0063 32.8091 33.6073C31.1026 35.2082 29.0957 36.455 26.9044 37.2755C25.1814 37.9206 23.3712 38.2922 21.5394 38.3794C20.7134 38.4188 20.0178 39.0573 19.9872 39.8837Z" stroke="#0B92D2" stroke-width="6" mask="url(#path-2-inside-1_1_69)"/>
<path d="M13.1564 24.11C12.5564 24.11 12.0531 24.0133 11.6464 23.82C11.2398 23.6267 10.9298 23.3733 10.7164 23.06C10.5098 22.7467 10.3998 22.4133 10.3864 22.06C10.3864 22 10.4064 21.95 10.4464 21.91C10.4864 21.87 10.5364 21.85 10.5964 21.85H11.7264C11.8064 21.85 11.8698 21.87 11.9164 21.91C11.9698 21.9433 12.0098 21.99 12.0364 22.05C12.1031 22.23 12.1898 22.3767 12.2964 22.49C12.4098 22.6033 12.5398 22.6867 12.6864 22.74C12.8331 22.7933 12.9898 22.82 13.1564 22.82C13.3698 22.82 13.5664 22.7767 13.7464 22.69C13.9264 22.5967 14.0698 22.4633 14.1764 22.29C14.2831 22.1167 14.3364 21.9033 14.3364 21.65C14.3364 21.43 14.2864 21.2367 14.1864 21.07C14.0864 20.9033 13.9464 20.7733 13.7664 20.68C13.5864 20.5867 13.3831 20.54 13.1564 20.54C12.9831 20.54 12.8398 20.56 12.7264 20.6C12.6198 20.64 12.5298 20.69 12.4564 20.75C12.3831 20.8033 12.3164 20.8533 12.2564 20.9C12.1964 20.94 12.1298 20.96 12.0564 20.96H10.9464C10.8864 20.96 10.8331 20.94 10.7864 20.9C10.7464 20.8533 10.7264 20.8 10.7264 20.74L11.0764 17.29C11.0898 17.1967 11.1231 17.1267 11.1764 17.08C11.2364 17.0267 11.3064 17 11.3864 17H15.2664C15.3398 17 15.3998 17.0233 15.4464 17.07C15.4931 17.1167 15.5164 17.1767 15.5164 17.25V18.05C15.5164 18.1167 15.4931 18.1733 15.4464 18.22C15.3998 18.2667 15.3398 18.29 15.2664 18.29H12.3764L12.2264 19.76C12.3598 19.6733 12.5231 19.5967 12.7164 19.53C12.9164 19.4567 13.1931 19.42 13.5464 19.42C13.8664 19.42 14.1698 19.4733 14.4564 19.58C14.7498 19.68 15.0098 19.83 15.2364 20.03C15.4631 20.23 15.6398 20.47 15.7664 20.75C15.8998 21.0233 15.9664 21.3367 15.9664 21.69C15.9664 22.17 15.8531 22.5933 15.6264 22.96C15.3998 23.32 15.0764 23.6033 14.6564 23.81C14.2364 24.01 13.7364 24.11 13.1564 24.11ZM19.6848 24.1C19.2048 24.1 18.7915 24.0333 18.4448 23.9C18.1048 23.76 17.8215 23.57 17.5948 23.33C17.3748 23.0833 17.2081 22.8 17.0948 22.48C16.9881 22.1533 16.9248 21.8067 16.9048 21.44C16.8981 21.26 16.8915 21.06 16.8848 20.84C16.8848 20.6133 16.8848 20.3867 16.8848 20.16C16.8915 19.9333 16.8981 19.7267 16.9048 19.54C16.9181 19.1733 16.9815 18.83 17.0948 18.51C17.2148 18.19 17.3881 17.91 17.6148 17.67C17.8415 17.43 18.1248 17.2433 18.4648 17.11C18.8115 16.97 19.2181 16.9 19.6848 16.9C20.1515 16.9 20.5548 16.97 20.8948 17.11C21.2348 17.2433 21.5181 17.43 21.7448 17.67C21.9715 17.91 22.1415 18.19 22.2548 18.51C22.3748 18.83 22.4448 19.1733 22.4648 19.54C22.4715 19.7267 22.4748 19.9333 22.4748 20.16C22.4815 20.3867 22.4815 20.6133 22.4748 20.84C22.4748 21.06 22.4715 21.26 22.4648 21.44C22.4448 21.8067 22.3781 22.1533 22.2648 22.48C22.1515 22.8 21.9815 23.0833 21.7548 23.33C21.5348 23.57 21.2515 23.76 20.9048 23.9C20.5648 24.0333 20.1581 24.1 19.6848 24.1ZM19.6848 22.8C20.0715 22.8 20.3548 22.6733 20.5348 22.42C20.7148 22.1667 20.8115 21.8233 20.8248 21.39C20.8315 21.1967 20.8348 20.9967 20.8348 20.79C20.8415 20.5833 20.8415 20.3767 20.8348 20.17C20.8348 19.9633 20.8315 19.77 20.8248 19.59C20.8115 19.1767 20.7148 18.84 20.5348 18.58C20.3548 18.32 20.0715 18.1867 19.6848 18.18C19.2915 18.1867 19.0048 18.32 18.8248 18.58C18.6515 18.84 18.5581 19.1767 18.5448 19.59C18.5381 19.77 18.5315 19.9633 18.5248 20.17C18.5248 20.3767 18.5248 20.5833 18.5248 20.79C18.5315 20.9967 18.5381 21.1967 18.5448 21.39C18.5581 21.8233 18.6548 22.1667 18.8348 22.42C19.0148 22.6733 19.2981 22.8 19.6848 22.8ZM24.1345 24C23.9878 24 23.9145 23.9333 23.9145 23.8C23.9145 23.76 23.9278 23.7233 23.9545 23.69L28.8945 17.19C28.9411 17.13 28.9878 17.0833 29.0345 17.05C29.0811 17.0167 29.1478 17 29.2345 17H29.8545C30.0011 17 30.0745 17.0667 30.0745 17.2C30.0745 17.24 30.0611 17.2767 30.0345 17.31L25.0945 23.81C25.0478 23.87 25.0011 23.9167 24.9545 23.95C24.9145 23.9833 24.8478 24 24.7545 24H24.1345ZM29.0545 24.05C28.6011 24.05 28.2411 23.93 27.9745 23.69C27.7145 23.45 27.5711 23.13 27.5445 22.73C27.5311 22.5567 27.5245 22.4033 27.5245 22.27C27.5311 22.1367 27.5378 21.9767 27.5445 21.79C27.5645 21.39 27.7011 21.0667 27.9545 20.82C28.2145 20.5733 28.5811 20.45 29.0545 20.45C29.5278 20.45 29.8911 20.5733 30.1445 20.82C30.4045 21.0667 30.5445 21.39 30.5645 21.79C30.5778 21.9767 30.5845 22.1367 30.5845 22.27C30.5845 22.4033 30.5778 22.5567 30.5645 22.73C30.5445 23.13 30.3978 23.45 30.1245 23.69C29.8578 23.93 29.5011 24.05 29.0545 24.05ZM29.0545 23.23C29.1811 23.23 29.2811 23.2033 29.3545 23.15C29.4278 23.0967 29.4811 23.0267 29.5145 22.94C29.5545 22.8533 29.5778 22.7633 29.5845 22.67C29.5978 22.5167 29.6045 22.38 29.6045 22.26C29.6045 22.1333 29.5978 21.9933 29.5845 21.84C29.5778 21.7 29.5345 21.5733 29.4545 21.46C29.3745 21.3467 29.2411 21.29 29.0545 21.29C28.8678 21.29 28.7345 21.3467 28.6545 21.46C28.5811 21.5733 28.5378 21.7 28.5245 21.84C28.5178 21.9933 28.5145 22.1333 28.5145 22.26C28.5145 22.38 28.5178 22.5167 28.5245 22.67C28.5378 22.7633 28.5578 22.8533 28.5845 22.94C28.6178 23.0267 28.6711 23.0967 28.7445 23.15C28.8245 23.2033 28.9278 23.23 29.0545 23.23ZM24.9445 20.53C24.4911 20.53 24.1311 20.4133 23.8645 20.18C23.6045 19.94 23.4611 19.62 23.4345 19.22C23.4211 19.0467 23.4145 18.8967 23.4145 18.77C23.4211 18.6367 23.4278 18.4767 23.4345 18.29C23.4545 17.8833 23.5911 17.56 23.8445 17.32C24.1045 17.0733 24.4711 16.95 24.9445 16.95C25.4245 16.95 25.7911 17.0733 26.0445 17.32C26.2978 17.56 26.4345 17.8833 26.4545 18.29C26.4678 18.4767 26.4745 18.6367 26.4745 18.77C26.4745 18.8967 26.4678 19.0467 26.4545 19.22C26.4345 19.62 26.2911 19.94 26.0245 20.18C25.7578 20.4133 25.3978 20.53 24.9445 20.53ZM24.9445 19.72C25.0711 19.72 25.1711 19.6933 25.2445 19.64C25.3178 19.5867 25.3711 19.5167 25.4045 19.43C25.4445 19.3433 25.4678 19.2567 25.4745 19.17C25.4878 19.01 25.4945 18.87 25.4945 18.75C25.4945 18.6233 25.4878 18.4867 25.4745 18.34C25.4678 18.2 25.4245 18.0733 25.3445 17.96C25.2645 17.84 25.1311 17.78 24.9445 17.78C24.7578 17.78 24.6245 17.84 24.5445 17.96C24.4711 18.0733 24.4278 18.2 24.4145 18.34C24.4078 18.4867 24.4045 18.6233 24.4045 18.75C24.4045 18.87 24.4078 19.01 24.4145 19.17C24.4278 19.2567 24.4511 19.3433 24.4845 19.43C24.5178 19.5167 24.5711 19.5867 24.6445 19.64C24.7178 19.6933 24.8178 19.72 24.9445 19.72Z" fill="black"/>
</svg>
