<svg width="21" height="21" viewBox="0 0 21 21" fill="none" xmlns="http://www.w3.org/2000/svg">
<path d="M18.8985 0.279839L18.8985 0.279831C19.8568 0.0911808 20.7465 0.825045 20.75 1.82288C20.7509 2.08256 20.7074 2.29606 20.6097 2.50298C20.5103 2.71343 20.3487 2.93002 20.0946 3.18676L20.2723 3.36261L20.0946 3.18677L19.8395 3.4445L19.8101 3.41591C19.726 3.33441 19.1704 2.76801 18.62 2.20442C18.3458 1.92374 18.0744 1.64528 17.8661 1.43079C17.7716 1.33351 17.6902 1.24951 17.6274 1.18449C17.6845 1.12021 17.76 1.04161 17.8448 0.95834C18.0587 0.748263 18.2964 0.542991 18.4126 0.472775L18.4127 0.47275C18.542 0.394543 18.7699 0.305128 18.8985 0.279839ZM7.88797 1.70963L7.84111 1.48982L7.88797 1.70963C8.28797 1.62435 8.47056 1.58854 8.60469 1.58369C8.7205 1.57952 8.79984 1.59813 9.00296 1.65964L9.003 1.65965C9.13848 1.70066 9.29962 1.79761 9.44314 1.92742C9.58782 2.05828 9.69015 2.20034 9.73153 2.31245L9.73155 2.31249C9.74027 2.33609 9.75529 2.40289 9.76764 2.50472C9.77925 2.60046 9.78631 2.7084 9.78616 2.80346C9.78591 2.94336 9.77586 3.03512 9.7536 3.11817C9.7312 3.20174 9.69293 3.28956 9.62087 3.41764L9.62084 3.41769C9.50547 3.62283 9.40649 3.73291 9.2721 3.81229C9.12759 3.89764 8.92043 3.96062 8.55957 4.02402C6.96971 4.30326 5.63467 5.02609 4.54323 6.19958C3.96266 6.82377 3.62717 7.33323 3.24061 8.1727L3.24061 8.17271C3.00126 8.69259 2.84344 9.12587 2.74775 9.59363C2.65231 10.0602 2.62085 10.5506 2.62372 11.182C2.62797 12.1048 2.65294 12.3601 2.81103 12.9632L3.03087 12.9055L2.81103 12.9632C3.02353 13.7738 3.4911 14.8156 3.92287 15.4325C4.36299 16.0614 5.29791 16.9341 5.94632 17.3202L6.07425 17.1054L5.94633 17.3202C7.09613 18.005 8.09216 18.2952 9.46058 18.346C10.5581 18.3867 11.4435 18.2445 12.3909 17.8713C14.6768 16.9708 16.3447 14.7796 16.7225 12.2106L16.7686 11.8973L16.8107 11.6109H16.5213H16.3022C16.162 11.6109 16.1071 11.5484 16.0931 11.4927C16.1009 11.4792 16.1121 11.4615 16.1274 11.4391C16.173 11.3724 16.2421 11.2837 16.3306 11.1781C16.5068 10.9682 16.7466 10.7075 16.9957 10.4525C17.2449 10.1974 17.4994 9.95188 17.7044 9.7716C17.8075 9.68098 17.894 9.61036 17.9589 9.5638C17.9635 9.5605 17.9679 9.55739 17.9721 9.55447C17.976 9.55721 17.9801 9.56012 17.9843 9.56319C18.0489 9.6099 18.1353 9.68063 18.2383 9.77124C18.4431 9.95149 18.6981 10.1968 18.948 10.4512C19.1978 10.7056 19.4387 10.9653 19.6157 11.1739C19.7047 11.2787 19.7742 11.3668 19.8202 11.4327C19.8358 11.455 19.8471 11.4726 19.8549 11.4858C19.8488 11.5235 19.8329 11.5455 19.8156 11.5604C19.7892 11.5831 19.7331 11.6109 19.6304 11.6109C19.5485 11.6109 19.4673 11.6174 19.4005 11.6307C19.3691 11.6369 19.3278 11.6471 19.2883 11.6656C19.2692 11.6745 19.2369 11.6915 19.2058 11.7213C19.1747 11.7512 19.1242 11.815 19.1237 11.9106C19.1236 11.9409 19.1134 12.0312 19.0902 12.1783C19.0682 12.3178 19.0373 12.4914 19.0018 12.676C18.9305 13.0464 18.8428 13.4517 18.7749 13.7056L19.0059 13.7674L18.7748 13.7056C17.5687 18.2155 13.5451 21.0762 8.91298 20.7202C5.13862 20.4301 2.04847 18.0402 0.825366 14.4661L0.607776 14.5405L0.825364 14.4661C-0.0438907 11.9261 0.0731029 9.43046 1.16745 7.07031L0.943411 6.96643L1.16745 7.07031C1.69609 5.9302 2.34384 5.02604 3.26892 4.13814L3.10034 3.9625L3.26893 4.13814C4.54366 2.9146 6.11559 2.08744 7.88797 1.70963ZM9.96606 2.22587C9.84595 1.90048 9.43578 1.52945 9.07543 1.42037L10.0362 2.8039C10.0365 2.59125 10.0049 2.33114 9.96606 2.22587ZM16.0795 11.5192C16.0794 11.5192 16.0799 11.5178 16.0812 11.5148C16.0802 11.5177 16.0795 11.5192 16.0795 11.5192ZM18.0359 9.51544C18.0358 9.51558 18.0342 9.51638 18.0312 9.5175C18.0345 9.51586 18.036 9.51529 18.0359 9.51544ZM17.9128 9.51679C17.9094 9.51549 17.9076 9.51457 17.9076 9.51447C17.9076 9.51437 17.9093 9.51502 17.9128 9.51679ZM19.8686 11.5117C19.8685 11.5117 19.8677 11.51 19.8665 11.5069C19.8681 11.5103 19.8687 11.5118 19.8686 11.5117ZM7.93256 12.2337L7.93256 12.2337C8.13901 11.7477 8.33106 11.3064 8.47407 10.9873C8.51077 10.9054 8.54407 10.832 8.57343 10.7681C8.61799 10.8113 8.66778 10.8603 8.7219 10.914C8.94519 11.1355 9.23628 11.4322 9.5244 11.7307C9.81252 12.0293 10.0964 12.3284 10.3053 12.5547C10.3516 12.6049 10.3939 12.6511 10.4315 12.6927C10.3643 12.724 10.2865 12.7598 10.1996 12.7996C9.88806 12.9422 9.46308 13.1338 8.99999 13.3399C8.09717 13.7416 7.6406 13.936 7.39005 13.9968C7.32708 14.012 7.29173 14.0148 7.27448 14.0149C7.27007 14.0073 7.26385 13.9957 7.25588 13.9784C7.2568 13.9611 7.26489 13.8939 7.32808 13.7136C7.42022 13.4507 7.60225 13.0113 7.93256 12.2337ZM9.2528 9.71958L12.9991 5.89926L16.7388 2.0858L17.8448 3.21242L18.9574 4.34576L15.2112 8.16608L11.4715 11.9795L10.3654 10.8529L9.2528 9.71958Z" fill="black" stroke="white" stroke-width="0.5"/>
</svg>
