<svg width="25" height="19" viewBox="0 0 25 19" fill="none" xmlns="http://www.w3.org/2000/svg">
   <path d="M12.783 18.8428L24.6573 10.154C24.7632 10.0764 24.8495 9.97417 24.9091 9.85569C24.9687 9.73722 24.9999 9.60594 25 9.4727L25 9.4707C24.9997 9.33698 24.9683 9.20525 24.9082 9.08646C24.8481 8.96768 24.7612 8.86527 24.6547 8.78774L12.7804 0.154972C12.6576 0.0657269 12.5132 0.012815 12.363 0.00204896C12.2127 -0.00871705 12.0625 0.0230799 11.9288 0.0939457C11.7948 0.164419 11.6826 0.271328 11.6043 0.402895C11.526 0.534463 11.4847 0.685582 11.485 0.839604L11.485 4.90238L0.82003 4.90204C0.712301 4.902 0.605621 4.92367 0.50609 4.96583C0.406559 5.00798 0.316128 5.06979 0.239969 5.14771C0.163809 5.22564 0.103414 5.31815 0.0622385 5.41996C0.0210626 5.52178 -8.60768e-05 5.6309 -2.5095e-07 5.74108L0.00032367 13.258C0.000281703 13.3682 0.0214819 13.4774 0.062713 13.5792C0.103946 13.6811 0.164399 13.7736 0.240621 13.8515C0.316841 13.9294 0.407331 13.9912 0.506919 14.0334C0.606506 14.0755 0.713237 14.0971 0.821006 14.0971L11.4847 14.0971L11.4847 18.1612C11.4847 18.4746 11.6575 18.7624 11.9304 18.9072C12.0645 18.9777 12.2151 19.0091 12.3656 18.9977C12.516 18.9864 12.6605 18.9328 12.783 18.8428Z" fill="#0B92D2"/>
</svg>
