<svg width="42" height="42" viewBox="0 0 42 42" fill="none" xmlns="http://www.w3.org/2000/svg">
<circle cx="20.6971" cy="20.6971" r="19.1971" stroke="#0B92D2" stroke-opacity="0.27" stroke-width="3"/>
<mask id="path-2-inside-1_1_92" fill="white">
<path d="M41.3941 20.6971C41.3941 32.1277 32.1277 41.3941 20.6971 41.3941C9.26639 41.3941 0 32.1277 0 20.6971C0 9.26639 9.26639 0 20.6971 0C32.1277 0 41.3941 9.26639 41.3941 20.6971ZM2.99463 20.6971C2.99463 30.4738 10.9203 38.3995 20.6971 38.3995C30.4738 38.3995 38.3995 30.4738 38.3995 20.6971C38.3995 10.9203 30.4738 2.99463 20.6971 2.99463C10.9203 2.99463 2.99463 10.9203 2.99463 20.6971Z"/>
</mask>
<path d="M41.3941 20.6971C41.3941 32.1277 32.1277 41.3941 20.6971 41.3941C9.26639 41.3941 0 32.1277 0 20.6971C0 9.26639 9.26639 0 20.6971 0C32.1277 0 41.3941 9.26639 41.3941 20.6971ZM2.99463 20.6971C2.99463 30.4738 10.9203 38.3995 20.6971 38.3995C30.4738 38.3995 38.3995 30.4738 38.3995 20.6971C38.3995 10.9203 30.4738 2.99463 20.6971 2.99463C10.9203 2.99463 2.99463 10.9203 2.99463 20.6971Z" stroke="#0B92D2" stroke-width="6" mask="url(#path-2-inside-1_1_92)"/>
<path d="M10.2232 24C10.1565 24 10.0965 23.9767 10.0432 23.93C9.99652 23.8833 9.97319 23.8233 9.97319 23.75V18.78L8.53319 19.89C8.47319 19.9367 8.40985 19.9533 8.34319 19.94C8.28319 19.9267 8.22985 19.89 8.18319 19.83L7.68319 19.18C7.64319 19.12 7.62652 19.0567 7.63319 18.99C7.64652 18.9233 7.68319 18.87 7.74319 18.83L10.0232 17.07C10.0632 17.0433 10.0999 17.0267 10.1332 17.02C10.1732 17.0067 10.2165 17 10.2632 17H11.3232C11.3899 17 11.4465 17.0233 11.4932 17.07C11.5399 17.1167 11.5632 17.1767 11.5632 17.25V23.75C11.5632 23.8233 11.5399 23.8833 11.4932 23.93C11.4465 23.9767 11.3899 24 11.3232 24H10.2232ZM15.5783 24.1C15.0983 24.1 14.685 24.0333 14.3383 23.9C13.9983 23.76 13.715 23.57 13.4883 23.33C13.2683 23.0833 13.1017 22.8 12.9883 22.48C12.8817 22.1533 12.8183 21.8067 12.7983 21.44C12.7917 21.26 12.785 21.06 12.7783 20.84C12.7783 20.6133 12.7783 20.3867 12.7783 20.16C12.785 19.9333 12.7917 19.7267 12.7983 19.54C12.8117 19.1733 12.875 18.83 12.9883 18.51C13.1083 18.19 13.2817 17.91 13.5083 17.67C13.735 17.43 14.0183 17.2433 14.3583 17.11C14.705 16.97 15.1117 16.9 15.5783 16.9C16.045 16.9 16.4483 16.97 16.7883 17.11C17.1283 17.2433 17.4117 17.43 17.6383 17.67C17.865 17.91 18.035 18.19 18.1483 18.51C18.2683 18.83 18.3383 19.1733 18.3583 19.54C18.365 19.7267 18.3683 19.9333 18.3683 20.16C18.375 20.3867 18.375 20.6133 18.3683 20.84C18.3683 21.06 18.365 21.26 18.3583 21.44C18.3383 21.8067 18.2717 22.1533 18.1583 22.48C18.045 22.8 17.875 23.0833 17.6483 23.33C17.4283 23.57 17.145 23.76 16.7983 23.9C16.4583 24.0333 16.0517 24.1 15.5783 24.1ZM15.5783 22.8C15.965 22.8 16.2483 22.6733 16.4283 22.42C16.6083 22.1667 16.705 21.8233 16.7183 21.39C16.725 21.1967 16.7283 20.9967 16.7283 20.79C16.735 20.5833 16.735 20.3767 16.7283 20.17C16.7283 19.9633 16.725 19.77 16.7183 19.59C16.705 19.1767 16.6083 18.84 16.4283 18.58C16.2483 18.32 15.965 18.1867 15.5783 18.18C15.185 18.1867 14.8983 18.32 14.7183 18.58C14.545 18.84 14.4517 19.1767 14.4383 19.59C14.4317 19.77 14.425 19.9633 14.4183 20.17C14.4183 20.3767 14.4183 20.5833 14.4183 20.79C14.425 20.9967 14.4317 21.1967 14.4383 21.39C14.4517 21.8233 14.5483 22.1667 14.7283 22.42C14.9083 22.6733 15.1917 22.8 15.5783 22.8ZM22.258 24.1C21.778 24.1 21.3647 24.0333 21.018 23.9C20.678 23.76 20.3947 23.57 20.168 23.33C19.948 23.0833 19.7814 22.8 19.668 22.48C19.5614 22.1533 19.498 21.8067 19.478 21.44C19.4714 21.26 19.4647 21.06 19.458 20.84C19.458 20.6133 19.458 20.3867 19.458 20.16C19.4647 19.9333 19.4714 19.7267 19.478 19.54C19.4914 19.1733 19.5547 18.83 19.668 18.51C19.788 18.19 19.9614 17.91 20.188 17.67C20.4147 17.43 20.698 17.2433 21.038 17.11C21.3847 16.97 21.7914 16.9 22.258 16.9C22.7247 16.9 23.128 16.97 23.468 17.11C23.808 17.2433 24.0914 17.43 24.318 17.67C24.5447 17.91 24.7147 18.19 24.828 18.51C24.948 18.83 25.018 19.1733 25.038 19.54C25.0447 19.7267 25.048 19.9333 25.048 20.16C25.0547 20.3867 25.0547 20.6133 25.048 20.84C25.048 21.06 25.0447 21.26 25.038 21.44C25.018 21.8067 24.9514 22.1533 24.838 22.48C24.7247 22.8 24.5547 23.0833 24.328 23.33C24.108 23.57 23.8247 23.76 23.478 23.9C23.138 24.0333 22.7314 24.1 22.258 24.1ZM22.258 22.8C22.6447 22.8 22.928 22.6733 23.108 22.42C23.288 22.1667 23.3847 21.8233 23.398 21.39C23.4047 21.1967 23.408 20.9967 23.408 20.79C23.4147 20.5833 23.4147 20.3767 23.408 20.17C23.408 19.9633 23.4047 19.77 23.398 19.59C23.3847 19.1767 23.288 18.84 23.108 18.58C22.928 18.32 22.6447 18.1867 22.258 18.18C21.8647 18.1867 21.578 18.32 21.398 18.58C21.2247 18.84 21.1314 19.1767 21.118 19.59C21.1114 19.77 21.1047 19.9633 21.098 20.17C21.098 20.3767 21.098 20.5833 21.098 20.79C21.1047 20.9967 21.1114 21.1967 21.118 21.39C21.1314 21.8233 21.228 22.1667 21.408 22.42C21.588 22.6733 21.8714 22.8 22.258 22.8ZM26.7077 24C26.5611 24 26.4877 23.9333 26.4877 23.8C26.4877 23.76 26.5011 23.7233 26.5277 23.69L31.4677 17.19C31.5144 17.13 31.5611 17.0833 31.6077 17.05C31.6544 17.0167 31.7211 17 31.8077 17H32.4277C32.5744 17 32.6477 17.0667 32.6477 17.2C32.6477 17.24 32.6344 17.2767 32.6077 17.31L27.6677 23.81C27.6211 23.87 27.5744 23.9167 27.5277 23.95C27.4877 23.9833 27.4211 24 27.3277 24H26.7077ZM31.6277 24.05C31.1744 24.05 30.8144 23.93 30.5477 23.69C30.2877 23.45 30.1444 23.13 30.1177 22.73C30.1044 22.5567 30.0977 22.4033 30.0977 22.27C30.1044 22.1367 30.1111 21.9767 30.1177 21.79C30.1377 21.39 30.2744 21.0667 30.5277 20.82C30.7877 20.5733 31.1544 20.45 31.6277 20.45C32.1011 20.45 32.4644 20.5733 32.7177 20.82C32.9777 21.0667 33.1177 21.39 33.1377 21.79C33.1511 21.9767 33.1577 22.1367 33.1577 22.27C33.1577 22.4033 33.1511 22.5567 33.1377 22.73C33.1177 23.13 32.9711 23.45 32.6977 23.69C32.4311 23.93 32.0744 24.05 31.6277 24.05ZM31.6277 23.23C31.7544 23.23 31.8544 23.2033 31.9277 23.15C32.0011 23.0967 32.0544 23.0267 32.0877 22.94C32.1277 22.8533 32.1511 22.7633 32.1577 22.67C32.1711 22.5167 32.1777 22.38 32.1777 22.26C32.1777 22.1333 32.1711 21.9933 32.1577 21.84C32.1511 21.7 32.1077 21.5733 32.0277 21.46C31.9477 21.3467 31.8144 21.29 31.6277 21.29C31.4411 21.29 31.3077 21.3467 31.2277 21.46C31.1544 21.5733 31.1111 21.7 31.0977 21.84C31.0911 21.9933 31.0877 22.1333 31.0877 22.26C31.0877 22.38 31.0911 22.5167 31.0977 22.67C31.1111 22.7633 31.1311 22.8533 31.1577 22.94C31.1911 23.0267 31.2444 23.0967 31.3177 23.15C31.3977 23.2033 31.5011 23.23 31.6277 23.23ZM27.5177 20.53C27.0644 20.53 26.7044 20.4133 26.4377 20.18C26.1777 19.94 26.0344 19.62 26.0077 19.22C25.9944 19.0467 25.9877 18.8967 25.9877 18.77C25.9944 18.6367 26.0011 18.4767 26.0077 18.29C26.0277 17.8833 26.1644 17.56 26.4177 17.32C26.6777 17.0733 27.0444 16.95 27.5177 16.95C27.9977 16.95 28.3644 17.0733 28.6177 17.32C28.8711 17.56 29.0077 17.8833 29.0277 18.29C29.0411 18.4767 29.0477 18.6367 29.0477 18.77C29.0477 18.8967 29.0411 19.0467 29.0277 19.22C29.0077 19.62 28.8644 19.94 28.5977 20.18C28.3311 20.4133 27.9711 20.53 27.5177 20.53ZM27.5177 19.72C27.6444 19.72 27.7444 19.6933 27.8177 19.64C27.8911 19.5867 27.9444 19.5167 27.9777 19.43C28.0177 19.3433 28.0411 19.2567 28.0477 19.17C28.0611 19.01 28.0677 18.87 28.0677 18.75C28.0677 18.6233 28.0611 18.4867 28.0477 18.34C28.0411 18.2 27.9977 18.0733 27.9177 17.96C27.8377 17.84 27.7044 17.78 27.5177 17.78C27.3311 17.78 27.1977 17.84 27.1177 17.96C27.0444 18.0733 27.0011 18.2 26.9877 18.34C26.9811 18.4867 26.9777 18.6233 26.9777 18.75C26.9777 18.87 26.9811 19.01 26.9877 19.17C27.0011 19.2567 27.0244 19.3433 27.0577 19.43C27.0911 19.5167 27.1444 19.5867 27.2177 19.64C27.2911 19.6933 27.3911 19.72 27.5177 19.72Z" fill="black"/>
</svg>
